<svg width="275" height="275" viewBox="0 0 275 275" fill="none" xmlns="http://www.w3.org/2000/svg">
<path fill-rule="evenodd" clip-rule="evenodd" d="M8.80968 8.80968C20.5559 -2.93656 39.6003 -2.93656 51.3466 8.80968L137.5 94.9631L223.653 8.80968C235.4 -2.93656 254.444 -2.93656 266.19 8.80968C277.937 20.5559 277.937 39.6003 266.19 51.3466L180.037 137.5L266.19 223.653C277.937 235.4 277.937 254.444 266.19 266.19C254.444 277.937 235.4 277.937 223.653 266.19L137.5 180.037L51.3466 266.19C39.6003 277.937 20.5559 277.937 8.80968 266.19C-2.93656 254.444 -2.93656 235.4 8.80968 223.653L94.9631 137.5L8.80968 51.3466C-2.93656 39.6003 -2.93656 20.5559 8.80968 8.80968Z" fill="#2A164A"/>
</svg>
