<svg width="348" height="333" viewBox="0 0 348 333" fill="none" xmlns="http://www.w3.org/2000/svg">
<path d="M56.5308 301H340.469C345.598 301 349.224 295.984 347.614 291.117L314.151 189.946C311.91 183.171 300.222 182.038 295.41 187.308C281.475 202.566 253.018 222.021 198.5 222.021C143.982 222.021 115.525 202.566 101.59 187.308C96.7777 182.038 85.0897 183.171 82.849 189.946L49.3861 291.117C47.7762 295.984 51.4022 301 56.5308 301Z" fill="#B485FF"/>
<path d="M291 94C291 145.915 248.915 188 197 188C145.085 188 103 145.915 103 94C103 42.0852 145.085 0 197 0C248.915 0 291 42.0852 291 94Z" fill="#B485FF"/>
<path fill-rule="evenodd" clip-rule="evenodd" d="M168.5 184.176C210.901 184.176 245.275 149.623 245.275 107C245.275 64.3766 210.901 29.8235 168.5 29.8235C126.099 29.8235 91.7255 64.3766 91.7255 107C91.7255 149.623 126.099 184.176 168.5 184.176ZM168.5 203C221.243 203 264 160.019 264 107C264 53.9807 221.243 11 168.5 11C115.757 11 73 53.9807 73 107C73 160.019 115.757 203 168.5 203Z" fill="#2E2A32"/>
<path fill-rule="evenodd" clip-rule="evenodd" d="M63.5757 202.617C62.0492 199.153 58.6082 196.938 54.8348 197.001C51.029 197.065 47.6382 199.435 46.25 203L0.64679 320.111C-0.485143 323.018 -0.115911 326.3 1.63323 328.878C3.38237 331.457 6.28539 333 9.38893 333H328.611C331.715 333 334.618 331.457 336.367 328.878C338.116 326.3 338.485 323.018 337.353 320.111L291.75 203C290.362 199.435 286.971 197.065 283.165 197.001C279.392 196.938 275.951 199.153 274.424 202.618C274.415 202.638 274.392 202.686 274.356 202.76C274.266 202.941 274.092 203.278 273.823 203.75C273.284 204.693 272.361 206.172 270.955 208.016C268.15 211.694 263.399 216.853 255.876 222.11C240.918 232.563 214.355 243.844 169 243.844C123.645 243.844 97.0823 232.563 82.1242 222.11C74.6014 216.853 69.8497 211.694 67.0447 208.016C65.6391 206.172 64.7163 204.693 64.1772 203.75C63.9076 203.278 63.7341 202.941 63.6444 202.76C63.6078 202.686 63.5852 202.638 63.5757 202.617ZM280.463 225.805C276.906 229.532 272.351 233.597 266.589 237.623C248.029 250.593 217.588 262.733 169 262.733C120.412 262.733 89.9713 250.593 71.411 237.623C65.649 233.597 61.0936 229.532 57.5365 225.805L23.1501 314.111H314.85L280.463 225.805Z" fill="#2E2A32"/>
</svg>
